<svg xmlns="http://www.w3.org/2000/svg" xmlns:xlink="http://www.w3.org/1999/xlink" id="Layer_1" x="0px" y="0px" viewBox="0 0 841.9 385" xml:space="preserve">
<g>
	<path fill="#F39200" d="M166,90v-0.5c0-23.4-11.9-43.8-39.1-50.9c-3.6-0.9-11-1.9-14.6-1.6c-9.9,0.7-25,5.1-36.5,15.3   C65.3,63.5,60,76.2,60,90.4c1.9,19.8,11.7,34.7,29.6,44.6c17.9,9.9,37.2,19.4,57.9,28.4c20.7,9,34.6,20.3,41.7,33.9   c5,10.9,7.4,22.3,7.4,34.4c0,33.5-15.1,62.7-50.2,77.4c-13.6,5.7-25,6.5-32.6,6.5c-29.3,0-54.8-12.7-71.8-40.9   C33.2,260.1,30,245.7,30,232.9v-1.4h29.5v0.5c0,23.6,11.7,44.3,38.8,51.2c3.6,0.9,14.6,1.6,14.6,1.6c23.7,0,44.2-11.9,50.9-39.1   c0.9-3.6,1.6-11,1.6-14.6c0.2-15.4-8.5-27.7-23.7-37c-15.2-9.3-32.9-18-53.1-26C68.5,160,51.9,149,42.1,133   c-9-14.6-12.1-29.1-12.1-41.9c0-31,14.6-55.6,43.9-73.7C86,10.6,99.7,7.2,114.9,7.2c31.8,0,57.8,15.5,74.4,48.4   c5.4,10.7,7.4,22.3,7.4,34.4H166z"></path>
	<path fill="#F39200" d="M309.7,141.1h-0.9c-17.2,0-33.2,6.7-48.1,20c-14.3,14.9-21.4,31.8-21.4,50.7c0,31.2,18.5,59.3,51.4,67.4   c4.7,1.2,19.1,2.3,19.1,2.3v31.4c-35.2,0-64-16.4-86.5-49.3c-9.6-18.3-14.4-35.2-14.4-50.7c0-37.4,17.2-67.7,53-88.8   c14.1-8.3,30.2-12.2,47.9-12.3V141.1z"></path>
	<path fill="#F39200" d="M427.6,111.8c38.4,0,68.4,19.5,90,58.4c5.9,13,8.8,26.9,8.8,41.6c0,40.3-20.2,71.4-60.7,93.2   c-17.1,5.3-30.1,7.9-39.3,7.9c-35.3,0-64.2-16.4-86.7-49.3c-9.6-18.3-14.4-35.2-14.4-50.7c0-37.4,17.7-67,53-88.8   C392.8,115.9,409.3,111.8,427.6,111.8z M355.7,211.8c0,31.2,15.6,58.2,51.4,67.4c4.7,1.2,19.3,2.3,19.3,2.3   c31.5,0,58.4-15.8,67.4-51.6c1.2-4.7,2.3-19.3,2.3-19.3c0-31-15.6-58.4-51.6-67.4c-4.7-1.2-14.4-1.9-19.3-2.1   c-17.2-0.5-33.8,6.1-48.1,20C362.3,175.4,355.7,192.9,355.7,211.8z"></path>
	<path fill="#F39200" d="M634.5,141.1c0,0-14.6,0.9-19.3,2.1c-36,9.1-51.7,36.4-51.8,67.4v102.3h-28.6V112.5h28.6v28.6   c18.8-19.5,41.7-29.3,68.8-29.3h2.3V141.1z"></path>
	<path fill="#F39200" d="M760,312.9c-16.3,0-29.5-0.9-39.5-2.8c-10.1-1.9-24-7-39.8-18.4c-25.8-18.6-37-46.6-37-79.3   c0-5.9,0.4-12,1.2-18.4c2.8-16.7,10-32.2,21.6-46.5c19.4-23.9,44.9-35.8,76.7-35.8c8.2,0,16.8,0.8,25.8,2.3   c14.1,3.7,26.9,10.2,38.4,19.5c3.7,3.1,7.1,6.2,10,9.3L701.2,267.8c10.2,9.1,29.6,14,58.1,14.6h0.7V312.9z M774.9,148.8   c-8.1-5.1-17.5-7.7-28.4-7.7c-14,0-30.3,2.3-44.9,13.3c-3.9,2.9-13.7,13.7-13.7,13.7c-9.9,12.2-14.9,27.5-14.9,45.8v4.7   c2,15.3,4.6,25.3,7.9,30L774.9,148.8z"></path>
</g>
<g>
	<path fill="#F6F6F6" d="M236.3,81.8c0,0,0.1,0.1,0.1,0.2c0,1.4-0.2,2.7-0.7,3.8c-0.4,1.1-1.2,2.1-2.2,3c-0.7,0.7-1.6,1.1-2.5,1.4   c-0.9,0.3-1.9,0.5-3,0.5h-6.4c-1.8,0-3.3-0.4-4.5-1.2c-1.2-0.8-2.1-2.1-2.7-3.7c-1.1-2.4-1.6-6-1.6-10.7c0-1.4,0.1-3.2,0.2-5.7   c0.1-1.1,0.1-2,0.1-2.8c0-0.7,0-1.4,0-1.9h-2.3c-0.3,0-0.5-0.2-0.5-0.6v-4.5c0-0.3,0.2-0.5,0.5-0.5h2.3v-5.3c0-0.3,0.2-0.5,0.5-0.5   h3.3c0.3,0,0.5,0.2,0.5,0.5v5.3h16.1c0.4,0,0.6,0.2,0.6,0.5v4.5c0,0.4-0.2,0.6-0.6,0.6h-16.1v14.7c0,2.2,0.3,3.8,1,4.9   c0.7,1.1,1.7,1.6,3.2,1.6h6.3c1,0,1.9-0.3,2.7-0.8c0.9-0.6,1.4-1.6,1.4-3.1c0-0.3,0.2-0.5,0.5-0.5h3.5c0.1,0,0.2,0,0.2,0.1   L236.3,81.8z"></path>
	<path fill="#F6F6F6" d="M263.6,90.7c-0.3,0-0.5-0.2-0.5-0.5V71.5c0-2.4-0.6-4.3-1.7-5.7c-1.1-1.4-2.5-2.1-4.3-2.1h-8.5   c-1.9,0-3.3,0.7-4.4,2.1c-1.1,1.4-1.6,3.3-1.6,5.7v18.7c0,0.3-0.2,0.5-0.5,0.5h-3.5c-0.3,0-0.4-0.2-0.4-0.5v-43   c0-0.3,0.1-0.5,0.4-0.5h3.5c0.3,0,0.5,0.2,0.5,0.5v13.7c0.6-0.8,1.2-1.3,1.9-1.5c0.7-0.2,1.7-0.3,3.1-0.3h9.5c3.1,0,5.6,1,7.4,3.1   c0.9,1.1,1.6,2.4,2.1,4c0.5,1.5,0.7,3.3,0.7,5.4v18.7c0,0.3-0.2,0.5-0.5,0.5H263.6z"></path>
	<path fill="#F6F6F6" d="M298.2,85.2c-0.4,1.2-1.1,2.2-1.9,3.1c-1.5,1.6-3.5,2.4-5.9,2.4h-10.9c-6.7,0-10-3.9-10-11.8v-7.3   c0-3.7,0.9-6.7,2.8-9c2-2.2,4.4-3.3,7.1-3.3h9.3c1.4,0,2.7,0.2,3.9,0.7c1.1,0.5,2.2,1.1,3.1,2c1,1,1.8,2.2,2.3,3.7   c0.5,1.4,0.8,3,0.8,4.7v4.4c0,0.4-0.2,0.6-0.5,0.6h-24.5v3c0,5.1,1.9,7.7,5.6,7.7H290c1.7,0,2.9-0.5,3.7-1.4c0.8-1,1.2-2.6,1.2-4.9   v-2.5c0.5-0.1,0.9-0.1,1.2-0.1c0.3,0,0.6,0,0.8,0h0.9c0.7,0,1,0.2,1,0.6v3.7C298.8,82.7,298.6,84,298.2,85.2z M275.3,65.9   c-0.9,1.2-1.5,2.8-1.5,4.6h20.9c-0.1-2-0.7-3.5-1.7-4.7c-1-1.2-2.3-1.8-3.8-1.8h-10.3C277.4,64,276.3,64.7,275.3,65.9z"></path>
</g>
<g>
	<path fill="#F6F6F6" d="M563,364.9c-0.3,0-0.5-0.2-0.5-0.5c0-0.6,0-1.4,0.1-2.5c0-1.1,0.1-2.4,0.2-3.9c0.1-1.5,0.1-2.8,0.2-3.9   c0.1-1.1,0.1-2,0.1-2.7c0-3.9-0.5-6.9-1.5-8.9c-0.5-1.2-1.3-2-2.3-2.6c-1-0.5-2.1-0.8-3.5-0.8h-6.5c-3,0-5.1,1.1-6.3,3.3   c-0.5,0.9-0.7,2.1-0.8,3.4c-0.1,1.4-0.1,3.2-0.1,5.3c0,4.1,0,7.3,0,9.5c0,2.2,0,3.4,0.1,3.7c0,0.3-0.2,0.5-0.5,0.5h-3.2   c-0.3,0-0.5-0.2-0.5-0.5v-15.8c0-1.5,0-2.7-0.1-3.7c-0.1-1-0.4-1.8-1-2.6c-1.1-1.4-2.1-2.3-3.1-2.7c-0.5-0.2-1-0.3-1.4-0.4   c-0.4-0.1-0.8-0.1-1.1-0.1h-6.7c-1.4,0-2.7,0.3-3.7,0.8c-1,0.6-1.8,1.5-2.3,2.7c-0.5,1.1-0.9,2.4-1.1,3.8c-0.2,1.4-0.3,3.2-0.3,5.2   c0,0.8,0,1.7,0,2.8c0,1.1,0.1,2.4,0.1,3.8c0.1,1.5,0.1,2.7,0.2,3.8c0,1,0.1,1.8,0.1,2.4c0,0.3-0.2,0.5-0.5,0.5h-3.7   c-0.2,0-0.3-0.2-0.3-0.5v-17.5c0-1.8,0.3-3.5,0.8-5c0.5-1.5,1.2-2.9,2.2-4c1-1.1,2.1-2,3.5-2.7c1.4-0.6,2.9-1,4.6-1h7.5   c1.1,0,2.1,0.1,3,0.3c0.9,0.2,1.6,0.5,2.3,1c0,0,0,0.1,0.1,0.1c0.6,0.4,1.2,0.9,1.7,1.5c0.5,0.6,1,1.3,1.4,2   c0.7-1.7,1.7-2.9,2.9-3.6c0.7-0.5,1.4-0.8,2.3-1c0.9-0.2,1.8-0.3,2.9-0.3h8.2c2.7,0,5,0.9,7,2.7c1,1.1,1.8,2.3,2.4,3.7   c0.6,1.4,0.8,2.9,0.8,4.6v19c0,0.3-0.2,0.5-0.5,0.5H563z"></path>
	<path fill="#F6F6F6" d="M598.9,345.7c0,0.4,0.1,0.7,0.1,1.1c0,0.3,0,0.7,0,1v5.1c-0.1,2.6-0.3,4.6-0.5,6.2   c-0.2,1.6-0.6,2.9-1.2,3.8c-0.5,0.9-1.3,1.5-2.3,1.8c-1,0.3-2.3,0.5-3.9,0.5h-13.8c-4.7,0-7-2.6-7-7.9v-2.8c0-1.7,0.2-3.2,0.5-4.3   c0.3-1.1,0.9-2,1.7-2.7c0.8-0.6,1.9-1.1,3.3-1.4c1.4-0.3,3.1-0.4,5.3-0.4h13.5l-0.1-0.7c-0.1-1.9-0.5-3.3-1.3-4.2   c0,0-0.1,0-0.2-0.1c-0.9-0.9-2-1.3-3.3-1.3h-9.2c-3.3,0-4.9,1.5-4.9,4.3c0,0.4-0.2,0.6-0.5,0.6h-3.3c-0.3,0-0.5-0.2-0.5-0.6V343   c0-2.8,0.9-5,2.7-6.5c0.8-0.6,1.6-1.1,2.7-1.4c1-0.3,2.1-0.5,3.2-0.5H590c2.8,0,5,0.9,6.6,2.5c1.6,1.6,2.4,4.2,2.4,7.9L598.9,345.7   z M594.5,352.5c0-0.8,0-1.3,0-1.7h-16.1c-1.4,0-2.3,0.2-2.7,0.6c-1,0.4-1.5,1.5-1.5,3.2v2.3c0,2.5,1.4,3.8,4.2,3.8H590   c2.9,0,4.3-1.7,4.3-5C594.5,354.3,594.5,353.2,594.5,352.5z"></path>
	<path fill="#F6F6F6" d="M630,372.1c-0.4,1.5-1.1,2.6-2.1,3.5c-1.7,1.5-4,2.2-7,2.2h-8.7c-2.3,0-4.3-0.6-5.9-1.8   c-1-0.8-1.7-1.7-2.2-2.8c-0.5-1.1-0.8-2.4-0.8-3.8c0-0.3,0.2-0.5,0.5-0.5h3.4c0.3,0,0.5,0.2,0.5,0.5c0,1.4,0.5,2.4,1.6,3h-0.1   c0.4,0.2,0.9,0.4,1.4,0.6c0.5,0.2,1.1,0.2,1.8,0.2h8.1c3.9,0,5.8-2.1,5.8-6.4v-3.6c-1.1,1.4-3,2-5.6,2H612c-6.5,0-9.7-3.9-9.7-11.6   v-6.9c0-8.2,3.1-12.3,9.4-12.3h9.2c1.3,0,2.6,0.2,3.7,0.5c1.1,0.4,2.2,0.9,3,1.8c0.9,0.8,1.6,1.9,2.1,3.2c0.5,1.3,0.9,2.9,0.9,4.9   v22.2C630.6,368.9,630.4,370.7,630,372.1z M626.6,347.3c0-5.6-2.1-8.4-6.3-8.4h-7.2c-2.3,0-3.9,0.5-4.9,1.6c-0.5,0.6-1,1.5-1.3,2.6   c-0.3,1.1-0.5,2.4-0.5,3.9v6c0,5,2.2,7.5,6.6,7.5h7.2c1.9,0,3.4-0.6,4.6-1.9c1.2-1.3,1.8-3.1,1.8-5.6V347.3z"></path>
	<path fill="#F6F6F6" d="M662.7,345.7c0,0.4,0.1,0.7,0.1,1.1c0,0.3,0,0.7,0,1v5.1c-0.1,2.6-0.3,4.6-0.5,6.2   c-0.2,1.6-0.6,2.9-1.2,3.8c-0.5,0.9-1.3,1.5-2.3,1.8c-1,0.3-2.3,0.5-3.9,0.5h-13.8c-4.7,0-7-2.6-7-7.9v-2.8c0-1.7,0.2-3.2,0.5-4.3   c0.3-1.1,0.9-2,1.7-2.7c0.8-0.6,1.9-1.1,3.3-1.4c1.4-0.3,3.1-0.4,5.3-0.4h13.5l-0.1-0.7c-0.1-1.9-0.5-3.3-1.3-4.2   c0,0-0.1,0-0.2-0.1c-0.9-0.9-2-1.3-3.3-1.3h-9.2c-3.3,0-4.9,1.5-4.9,4.3c0,0.4-0.2,0.6-0.5,0.6h-3.3c-0.3,0-0.5-0.2-0.5-0.6V343   c0-2.8,0.9-5,2.7-6.5c0.8-0.6,1.6-1.1,2.7-1.4c1-0.3,2.1-0.5,3.2-0.5h10.1c2.8,0,5,0.9,6.6,2.5c1.6,1.6,2.4,4.2,2.4,7.9   L662.7,345.7z M658.4,352.5c0-0.8,0-1.3,0-1.7h-16.1c-1.4,0-2.3,0.2-2.7,0.6c-1,0.4-1.5,1.5-1.5,3.2v2.3c0,2.5,1.4,3.8,4.2,3.8   h11.6c2.9,0,4.3-1.7,4.3-5C658.3,354.3,658.3,353.2,658.4,352.5z"></path>
	<path fill="#F6F6F6" d="M666.5,365.2c-0.4,0-0.6-0.2-0.6-0.5v-3.6l17.7-21.8h-17.1c-0.3,0-0.5-0.2-0.5-0.5v-3.7   c0-0.3,0.2-0.5,0.5-0.5h23c0.3,0,0.5,0.2,0.5,0.5v3.6l-17.7,21.9h17.2c0.3,0,0.5,0.2,0.5,0.5v3.7c0,0.3-0.2,0.5-0.5,0.5H666.5z"></path>
	<path fill="#F6F6F6" d="M693.1,327.7c-0.3,0-0.4-0.2-0.4-0.6v-4.3c0-0.3,0.1-0.5,0.4-0.5h2.5c0.2,0,0.3,0.2,0.3,0.5v4.3   c0,0.4-0.1,0.6-0.3,0.6H693.1z M693.1,365.2c-0.3,0-0.4-0.2-0.4-0.5v-29.8c0-0.3,0.1-0.5,0.4-0.5h2.5c0.2,0,0.3,0.2,0.3,0.5v29.8   c0,0.3-0.1,0.5-0.3,0.5H693.1z"></path>
	<path fill="#F6F6F6" d="M723.8,365.2c-0.3,0-0.5-0.2-0.5-0.5v-17.8c0-2.4-0.5-4.2-1.6-5.6c-1.1-1.3-2.5-2-4.2-2h-8.3   c-1.7,0-3,0.7-4.2,2c-1.1,1.4-1.7,3.2-1.7,5.5v17.8c0,0.3-0.2,0.5-0.6,0.5h-3.2c-0.3,0-0.5-0.2-0.5-0.5v-17.2   c0-4.1,0.9-7.2,2.7-9.5c1.8-2.2,4.2-3.4,7.4-3.4h8.3c3.1,0,5.6,1.1,7.3,3.3c1.8,2.2,2.6,5.4,2.6,9.6v17.2c0,0.3-0.2,0.5-0.5,0.5   H723.8z"></path>
	<path fill="#F6F6F6" d="M759,359.8c-0.4,1.1-1,2.2-1.9,3c-1.5,1.6-3.4,2.4-5.7,2.4h-10.6c-6.5,0-9.8-3.8-9.8-11.5v-7.1   c0-3.6,0.9-6.5,2.7-8.8c2-2.1,4.3-3.2,6.9-3.2h9.1c1.4,0,2.6,0.2,3.8,0.7c1.1,0.5,2.1,1.1,3,1.9c1,1,1.8,2.2,2.3,3.6   c0.5,1.4,0.8,2.9,0.8,4.6v4.3c0,0.4-0.2,0.6-0.5,0.6h-23.9v2.9c0,5,1.8,7.5,5.5,7.5H751c1.7,0,2.9-0.5,3.6-1.4   c0.8-0.9,1.2-2.5,1.2-4.8v-2.4c0.5-0.1,0.9-0.1,1.2-0.1c0.3,0,0.6,0,0.8,0h0.9c0.6,0,1,0.2,1,0.6v3.6   C759.6,357.3,759.4,358.6,759,359.8z M736.7,341c-0.9,1.2-1.4,2.7-1.5,4.5h20.3c-0.1-1.9-0.7-3.5-1.7-4.6c-1-1.1-2.2-1.7-3.7-1.7   h-10C738.8,339.2,737.6,339.8,736.7,341z"></path>
</g>
</svg>